<?xml version="1.0" encoding="utf-8"?>
<!-- Generator: Adobe Illustrator 16.0.0, SVG Export Plug-In . SVG Version: 6.00 Build 0)  -->
<!DOCTYPE svg PUBLIC "-//W3C//DTD SVG 1.1//EN" "http://www.w3.org/Graphics/SVG/1.1/DTD/svg11.dtd">
<svg version="1.1" id="Layer_1" xmlns="http://www.w3.org/2000/svg" xmlns:xlink="http://www.w3.org/1999/xlink" x="0px" y="0px"
	 width="14.17px" height="14.17px" viewBox="0 0 14.17 14.17" enable-background="new 0 0 14.17 14.17" xml:space="preserve">
<path fill="#375543" d="M11.439,5.765c0,1.232-0.44,2.463-1.057,3.342l3.519,3.518c0.353,0.354,0.353,0.881,0,1.232
	s-0.88,0.352-1.231,0L9.152,10.34c-0.968,0.703-2.2,1.145-3.431,1.145c-3.167,0-5.717-2.553-5.717-5.719
	c0-3.166,2.551-5.717,5.717-5.717C8.887,0.048,11.439,2.599,11.439,5.765z M5.722,9.725c2.199,0,3.958-1.758,3.958-3.959
	c0-2.198-1.759-3.958-3.958-3.958s-3.958,1.76-3.958,3.958C1.763,7.966,3.522,9.725,5.722,9.725z"/>
</svg>
