<?xml version="1.0" encoding="utf-8"?>
<!-- Generator: Adobe Illustrator 16.0.0, SVG Export Plug-In . SVG Version: 6.00 Build 0)  -->
<!DOCTYPE svg PUBLIC "-//W3C//DTD SVG 1.1//EN" "http://www.w3.org/Graphics/SVG/1.1/DTD/svg11.dtd">
<svg version="1.1" id="Layer_1" xmlns="http://www.w3.org/2000/svg" xmlns:xlink="http://www.w3.org/1999/xlink" x="0px" y="0px"
	 width="14.17px" height="14.17px" viewBox="0 0 14.17 14.17" enable-background="new 0 0 14.17 14.17" xml:space="preserve">
<path fill="#375543" d="M0,2.025c0-0.561,0.453-1.013,1.013-1.013H13.17c0.56,0,1.013,0.453,1.013,1.013s-0.453,1.013-1.013,1.013
	H1.013C0.453,3.038,0,2.585,0,2.025z M0,7.089c0-0.56,0.453-1.012,1.013-1.012H13.17c0.56,0,1.013,0.453,1.013,1.012
	c0,0.561-0.453,1.014-1.013,1.014H1.013C0.453,8.104,0,7.65,0,7.089z M14.183,12.154c0,0.561-0.453,1.015-1.013,1.015H1.013
	C0.453,13.169,0,12.715,0,12.154c0-0.559,0.453-1.012,1.013-1.012H13.17C13.729,11.143,14.183,11.596,14.183,12.154z"/>
</svg>
