<?xml version="1.0" encoding="utf-8"?>
<!-- Generator: Adobe Illustrator 16.0.0, SVG Export Plug-In . SVG Version: 6.00 Build 0)  -->
<!DOCTYPE svg PUBLIC "-//W3C//DTD SVG 1.1//EN" "http://www.w3.org/Graphics/SVG/1.1/DTD/svg11.dtd">
<svg version="1.1" id="Layer_1" xmlns="http://www.w3.org/2000/svg" xmlns:xlink="http://www.w3.org/1999/xlink" x="0px" y="0px"
	 width="268.392px" height="37.167px" viewBox="0 0 268.392 37.167" enable-background="new 0 0 268.392 37.167"
	 xml:space="preserve">
<g>
	<defs>
		<rect id="SVGID_1_" y="0" width="268.392" height="37.167"/>
	</defs>
	<clipPath id="SVGID_2_">
		<use xlink:href="#SVGID_1_"  overflow="visible"/>
	</clipPath>
	<path clip-path="url(#SVGID_2_)" fill="#375542" d="M38.36,0.928c-11.02,0-12.362,8.14-12.362,16.17c0,8.04,3.76,13.07,13.44,13.07
		c4.36,0,12.47-1.83,12.47-11.94C51.909,8.118,49.38,0.928,38.36,0.928 M45.068,21.978c0,0.98-0.8,5.271-5.85,5.271
		c-5.06,0-6.18-4.09-6.18-5.021c0-0.92,0.032-8.743,0.032-11.797c0-3.055,3-5.782,6.054-5.782c3.055,0,5.891,1.745,5.944,5.4V21.978
		z"/>
	<path clip-path="url(#SVGID_2_)" fill="#375542" d="M177.124,0.928c-11.02,0-12.362,8.14-12.362,16.17
		c0,8.04,3.761,13.07,13.44,13.07c4.36,0,12.47-1.83,12.47-11.94C190.672,8.118,188.145,0.928,177.124,0.928 M183.832,21.978
		c0,0.98-0.8,5.271-5.85,5.271c-5.061,0-6.181-4.09-6.181-5.021c0-0.92,0.032-8.743,0.032-11.797c0-3.055,3-5.782,6.055-5.782
		s5.891,1.745,5.943,5.4V21.978z"/>
	<path clip-path="url(#SVGID_2_)" fill="#375542" d="M0,8.163V0.928h25.999L26,8.163c0,0-0.891-1.344-1.72-2.038
		c-0.782-0.655-1.519-0.848-2.282-0.943h-6.014v21.941c0,0,0.177,0.944,0.832,1.6c0.654,0.654,2.188,1.445,2.188,1.445H5.996
		c0,0,1.547-1.082,2.002-1.591c0.454-0.51,1.004-1.281,1.004-1.945V5.167H4.27c0,0-0.826-0.079-1.972,0.63
		C0.665,6.809,0,8.163,0,8.163"/>
	<path clip-path="url(#SVGID_2_)" fill="#375542" d="M52.997,0.93c-0.03-0.025,0.892,0.448,1.71,2.648
		c0.425,1.142,0.309,18.636,0.309,19.591c0,0.954,1.291,7,12.527,7c10.335,0,10.473-7.108,10.473-9.019
		c0-1.909-0.245-15.784,0-17.028c0.245-1.244,1.999-3.192,1.999-3.192h-9.063c0,0,1.691,1.566,2.046,3.23
		c0.239,1.12,0,19.09,0,19.09s-0.927,3.928-5.073,3.928c-4.145,0-5.018-4.882-5.018-4.882S62.353,5.578,62.553,4.015
		c0.2-1.562,2.453-3.085,2.453-3.085H52.997z"/>
	<path clip-path="url(#SVGID_2_)" fill="#375542" d="M191.342,0.93c-0.03-0.025,0.892,0.448,1.71,2.648
		c0.425,1.142,0.309,18.636,0.309,19.591c0,0.954,1.291,7,12.527,7c10.335,0,10.473-7.108,10.473-9.019
		c0-1.909-0.245-15.784,0-17.028s2.999-3.192,2.999-3.192h-10.063c0,0,1.69,1.566,2.046,3.23c0.239,1.12,0,19.09,0,19.09
		s-0.927,3.928-5.073,3.928c-4.145,0-5.018-4.882-5.018-4.882s-0.2-16.612,0-18.174c0.199-1.562,2.099-3.192,2.099-3.192H191.342z"
		/>
	<path clip-path="url(#SVGID_2_)" fill="#375542" d="M267.19,7.898l-0.146-5.705c0,0-2.817-1.164-4.47-1.202
		c-1.446-0.033-5.17-0.316-8.692,0.68c-2.983,0.843-4.991,2.627-5.438,4.505c-0.372,1.64-0.526,5.277,0.855,7.258
		c1.382,1.982,9.791,5.973,11.209,7.337c1.242,1.193,1.029,4.367-0.553,5.167c-2.092,1.058-5.437,0.882-7.127,0.146
		c-2.631-1.146-4.645-4.182-4.645-4.182v6c0,0,1.325,0.907,2.026,1.2c1.905,0.795,3.693,1.014,6.871,1.014
		c7.854,0,11.309-3.318,11.309-8.009c0-4.691-3.409-6.927-7.064-8.864c-3.653-1.936-6.054-3.054-6.054-5.727
		c0-2.673,0.818-3.463,4.228-3.463C262.909,4.053,267.19,7.898,267.19,7.898"/>
	<path clip-path="url(#SVGID_2_)" fill="#375542" d="M101.144,7.898l-0.146-5.705c0,0-2.817-1.164-4.469-1.202
		c-1.447-0.033-5.17-0.316-8.693,0.68c-2.983,0.843-4.991,2.627-5.437,4.505c-0.372,1.64-0.527,5.277,0.855,7.258
		c1.382,1.982,9.791,5.973,11.209,7.337c1.242,1.193,1.029,4.367-0.553,5.167c-2.091,1.058-5.436,0.882-7.127,0.146
		c-2.63-1.146-4.644-4.182-4.644-4.182v6c0,0,1.325,0.907,2.026,1.2c1.906,0.795,3.694,1.014,6.871,1.014
		c7.854,0,11.309-3.318,11.309-8.009c0-4.691-3.409-6.927-7.064-8.864c-3.654-1.936-6.054-3.054-6.054-5.727
		c0-2.673,0.818-3.463,4.227-3.463C96.863,4.053,101.144,7.898,101.144,7.898"/>
	<path clip-path="url(#SVGID_2_)" fill="#375542" d="M127.019,26.109c-1.4-0.351-2.28-1.44-2.2-2.75c0.07-1.311,2.76-2.54,4.36-3.53
		c1.6-0.98,2.8-3.67,2.76-6.47c-0.02-1.96-3.07-1.77-4.69-0.8c-2.7,1.61-4,3.83-4.61,5.13c-0.99,2.069-1.9,5.96-1.9,5.96
		s-2.8,2.97-4,2.479c-0.89-0.39-1.56-0.84-1.74-3.279c-0.1-1.391,0.3-6.34,1.96-10.88c1.25-3.43,3.06-6.65,3.68-7.99
		c0.48-1.01,0.59-2.77,0.17-3.49s-1.42-0.62-2.13,0.14c-0.71,0.75-5.02,10.82-6.41,16.73c-1.51,6.41-1.88,9.47,0.84,11.2
		c2.43,1.109,3.34,0.5,4.47,0.069c1.33-0.489,3.24-3.12,3.24-3.12s1.16,3.551,4.87,3.551s6.25-3.84,6.25-3.84
		S127.999,26.349,127.019,26.109 M128.829,14.969c1.02,0.17-1.26,5.29-3.79,5.73C123.398,20.559,126.369,14.559,128.829,14.969"/>
	<path clip-path="url(#SVGID_2_)" fill="#375542" d="M141.098,18.952c0,0,3.873-2.451,3.873-4.43s-0.764-2.552-3.328-2.552
		c-2.563,0-6.081,1.991-7.527,4.146c-1.445,2.154-1.063,3.218-1.063,3.218s-0.137,3.327,4.527,3.327
		c3.545,0,4.526,0.136,4.444,1.255c-0.082,1.118-2.345,2.154-4.69,2.154c-2.345,0-4.718-0.928-4.718-0.928s-0.709,3.369,3.818,3.601
		c3.328,0.17,7.528-2.591,7.582-4.718c0.055-2.129-0.436-2.482-1.009-2.864s-6.683-0.791-6.437-2.482
		c0.245-1.691,1.663-3.163,4.582-4.009C142.242,14.479,143.253,13.934,141.098,18.952"/>
	<path clip-path="url(#SVGID_2_)" fill="#375542" d="M150.998,0.929c0,0,1.991,1.559,1.963,3.148c-0.018,1.009,0,26.847,0,26.847
		s0.128,2.707-1.182,4.362c-0.692,0.875-1.709,1.882-1.709,1.882s9.928-0.475,9.928-7.933V4.731c0,0-0.017-1.204,1.1-2.352
		c0.645-0.661,2.116-1.45,2.116-1.45H150.998z"/>
	<path clip-path="url(#SVGID_2_)" fill="#375542" d="M247.908,29.989c0,0-1.593-0.853-2.482-2.392
		c-1.131-1.958-2.225-4.649-2.945-6.382c-1.143-2.745-3.481-5.127-3.481-5.127s6-1.93,6-7.46c0-3.78-3.16-6-6.48-7.02
		c-1.53-0.47-3.479-0.68-4.39-0.68h-13.15c0,0,2.021,2.07,2.021,3v23.18c0,0.693-0.199,1.229-0.536,1.525
		c-0.727,0.639-1.773,1.354-1.773,1.354h11.973c0,0-0.703-0.463-1.228-0.822c-0.731-0.503-1.346-1.064-1.346-2.058v-9.001
		l3.955-0.103c0,0,4.121,5.354,4.48,10.884v1.101L247.908,29.989z M230.039,14.342V4.028c0,0,2.863-0.367,4.95,0.423
		c1.927,0.729,3.089,2.507,3.089,5.027C238.078,14.729,230.039,14.342,230.039,14.342"/>
</g>
</svg>
